<svg width="26" height="22" viewBox="0 0 26 22" fill="none" xmlns="http://www.w3.org/2000/svg">
<path d="M10.6166 21.7437C11.4178 21.9584 12.1704 21.4201 12.8685 20.4616L25.2624 3.3645C25.5999 2.90603 25.8446 2.4823 25.9461 2.10378C26.14 1.38004 25.803 0.812416 25.0796 0.618584C24.7013 0.517209 24.2152 0.506294 23.6496 0.569566L2.54221 2.77795C1.51196 2.88376 0.636415 3.25776 0.418635 4.07052C0.144161 5.09487 0.830666 5.64878 1.81251 6.25788L7.34384 9.6971C7.98529 10.1077 8.39187 10.1927 8.98977 9.8756L15.1888 6.97207C15.3693 6.87726 15.5147 6.95801 15.5991 7.08801C15.6805 7.22916 15.6626 7.38541 15.4902 7.49437L9.91018 11.4707C9.36499 11.8138 9.21901 12.1805 9.24173 12.9861L9.42484 19.336C9.45737 20.55 9.5816 21.4663 10.6166 21.7437Z" fill="#202020"/>
</svg>
