<svg width="24" height="24" viewBox="0 0 24 24" fill="none" xmlns="http://www.w3.org/2000/svg">
<path fill-rule="evenodd" clip-rule="evenodd" d="M18.8301 0.128335C20.2585 -0.23172 21.735 0.176343 22.7793 1.2205C23.8236 2.25266 24.2318 3.72889 23.8716 5.15711L20.9307 16.9309C20.4386 18.9112 18.9021 20.4355 16.9335 20.9275L5.15791 23.868C4.82181 23.964 4.4737 24 4.13759 24C3.05726 24 2.01294 23.5679 1.22069 22.7878C0.17637 21.7437 -0.231756 20.2674 0.128355 18.8392L3.06926 7.0654C3.56142 5.0971 5.08589 3.56086 7.0665 3.06879L18.8301 0.128335ZM16 12C16 14.2092 14.2092 16 12 16C9.79088 16 8 14.2092 8 12C8 9.79086 9.79088 8 12 8C14.2092 8 16 9.79086 16 12Z" fill="black"/>
</svg>
