<svg width="22" height="24" viewBox="0 0 22 24" fill="none" xmlns="http://www.w3.org/2000/svg">
<path fill-rule="evenodd" clip-rule="evenodd" d="M18.8738 9.32145V8.5C18.8738 3.98968 15.3485 0.333334 10.9999 0.333334C6.65117 0.333334 3.12587 3.98968 3.12587 8.5V9.32145C3.12587 10.3073 2.84452 11.2711 2.31728 12.0912L1.02527 14.1014C-0.154858 15.9374 0.746076 18.4329 2.7986 19.0135C8.16805 20.5323 13.8317 20.5323 19.201 19.0135C21.2537 18.4329 22.1546 15.9374 20.9744 14.1014L19.6824 12.0912C19.1552 11.2711 18.8738 10.3073 18.8738 9.32145ZM10.9996 23.6669C8.40713 23.6669 6.20963 21.9757 5.4502 19.6363C9.11988 20.325 12.8794 20.325 16.5491 19.6363C15.7896 21.9757 13.5922 23.6669 10.9996 23.6669Z" fill="#202020"/>
</svg>
