<svg width="38" height="38" viewBox="0 0 38 38" fill="none" xmlns="http://www.w3.org/2000/svg">
<rect x="7" y="7" width="24" height="24" rx="7" fill="#FD5646"/>
<path d="M13.6719 22L15.707 16.3633H16.4141V17.3516H16.1484L14.5938 22H13.6719ZM14.6523 20.4766L14.8984 19.7734H17.4648L17.7109 20.4766H14.6523ZM17.7656 22L16.2148 17.3516V16.3633H16.6562L18.6875 22H17.7656ZM19.3125 22L21.3477 16.3633H22.0547V17.3516H21.7891L20.2344 22H19.3125ZM20.293 20.4766L20.5391 19.7734H23.1055L23.3516 20.4766H20.293ZM23.4062 22L21.8555 17.3516V16.3633H22.2969L24.3281 22H23.4062Z" fill="white"/>
</svg>
