<svg width="22" height="22" viewBox="0 0 22 22" fill="none" xmlns="http://www.w3.org/2000/svg">
<path d="M16.1765 16.1721C17.7838 14.5637 18.7778 12.3424 18.7778 9.88889C18.7778 4.97969 14.7981 1 9.88889 1C4.97969 1 1 4.97969 1 9.88889C1 14.7981 4.97969 18.7778 9.88889 18.7778C12.3446 18.7778 14.5677 17.782 16.1765 16.1721Z" fill="#202020"/>
<path d="M16.1764 16.1721L21 21M18.7778 9.88889C18.7778 14.7981 14.7981 18.7778 9.88889 18.7778C4.97969 18.7778 1 14.7981 1 9.88889C1 4.97969 4.97969 1 9.88889 1C14.7981 1 18.7778 4.97969 18.7778 9.88889Z" stroke="#202020" stroke-width="2" stroke-linecap="round" stroke-linejoin="round"/>
</svg>
