<svg width="24" height="24" viewBox="0 0 24 24" fill="none" xmlns="http://www.w3.org/2000/svg">
<path fill-rule="evenodd" clip-rule="evenodd" d="M0.001564 18.1921V10.2294C-0.00198411 7.87995 1.09402 5.66425 2.96347 4.24151L8.20677 1.06158C10.537 -0.35386 13.4614 -0.35386 15.7915 1.06158L21.0365 4.24151C22.9061 5.66425 24.002 7.87995 23.9984 10.2294V18.1921C24.0713 21.3247 21.5926 23.9242 18.4603 24H5.5397C2.40742 23.9242 -0.0712494 21.3247 0.001564 18.1921ZM9.43643 16.756C9.30167 16.515 8.99704 16.4288 8.75601 16.5636C8.51498 16.6983 8.42882 17.003 8.56357 17.244C9.33242 18.6192 10.5932 19.5 12 19.5C13.4069 19.5 14.6676 18.6192 15.4364 17.244C15.5712 17.003 15.485 16.6983 15.244 16.5636C15.003 16.4288 14.6983 16.515 14.5636 16.756C13.926 17.8964 12.9602 18.5 12 18.5C11.0399 18.5 10.074 17.8964 9.43643 16.756Z" fill="black"/>
</svg>
