<svg width="75" height="50" viewBox="0 0 75 50" fill="none" xmlns="http://www.w3.org/2000/svg">
<rect x="26" y="9" width="24" height="24" rx="7" fill="#999999" fill-opacity="0.6"/>
<path d="M32.6719 24L34.707 18.3633H35.4141V19.3516H35.1484L33.5938 24H32.6719ZM33.6523 22.4766L33.8984 21.7734H36.4648L36.7109 22.4766H33.6523ZM36.7656 24L35.2148 19.3516V18.3633H35.6562L37.6875 24H36.7656ZM38.3125 24L40.3477 18.3633H41.0547V19.3516H40.7891L39.2344 24H38.3125ZM39.293 22.4766L39.5391 21.7734H42.1055L42.3516 22.4766H39.293ZM42.4062 24L40.8555 19.3516V18.3633H41.2969L43.3281 24H42.4062Z" fill="white"/>
</svg>
