<svg width="76" height="50" viewBox="0 0 76 50" fill="none" xmlns="http://www.w3.org/2000/svg">
<path fill-rule="evenodd" clip-rule="evenodd" d="M45.3301 9.12834C46.7585 8.76828 48.235 9.17634 49.2793 10.2205C50.3236 11.2527 50.7318 12.7289 50.3716 14.1571L47.4307 25.9309C46.9386 27.9112 45.4021 29.4355 43.4335 29.9275L31.6579 32.868C31.3218 32.964 30.9737 33 30.6376 33C29.5573 33 28.5129 32.5679 27.7207 31.7878C26.6764 30.7437 26.2682 29.2674 26.6284 27.8392L29.5693 16.0654C30.0614 14.0971 31.5859 12.5609 33.5665 12.0688L45.3301 9.12834ZM42.5 21C42.5 23.2092 40.7092 25 38.5 25C36.2909 25 34.5 23.2092 34.5 21C34.5 18.7909 36.2909 17 38.5 17C40.7092 17 42.5 18.7909 42.5 21Z" fill="#FD5646"/>
</svg>
