<svg width="39" height="38" viewBox="0 0 39 38" fill="none" xmlns="http://www.w3.org/2000/svg">
<path fill-rule="evenodd" clip-rule="evenodd" d="M26.3301 7.12834C27.7585 6.76828 29.235 7.17634 30.2793 8.2205C31.3236 9.25266 31.7318 10.7289 31.3716 12.1571L28.4307 23.9309C27.9386 25.9112 26.4021 27.4355 24.4335 27.9275L12.6579 30.868C12.3218 30.964 11.9737 31 11.6376 31C10.5573 31 9.51294 30.5679 8.72069 29.7878C7.67637 28.7437 7.26824 27.2674 7.62836 25.8392L10.5693 14.0654C11.0614 12.0971 12.5859 10.5609 14.5665 10.0688L26.3301 7.12834ZM23.5 19C23.5 21.2092 21.7092 23 19.5 23C17.2909 23 15.5 21.2092 15.5 19C15.5 16.7909 17.2909 15 19.5 15C21.7092 15 23.5 16.7909 23.5 19Z" fill="#999999" fill-opacity="0.6"/>
</svg>
